<svg xmlns="http://www.w3.org/2000/svg" viewBox="0 0 32 32" id="add">
  <circle cx="16" cy="16" r="15" fill="#eef5fd"></circle>
  <path fill="#d7e2f2" d="M2,17A15,15,0,0,1,27.08,5.92,15,15,0,1,0,5.92,27.08,14.93,14.93,0,0,1,2,17Z"></path>
  <path fill="#d7e2f2" d="M24.53,13.38h-5v-5a3,3,0,1,0-6,0v5h-5a3,3,0,0,0,0,6h5v5a3,3,0,1,0,6,0v-5h5a3,3,0,1,0,0-6Z"></path>
  <path fill="#ff9797" d="M24,13H19V8a3,3,0,0,0-6,0v5H8a3,3,0,0,0,0,6h5v5a3,3,0,0,0,6,0V19h5a3,3,0,0,0,0-6Z"></path>
  <path fill="#e47979" d="M5.92,17a3,3,0,0,1,3-3h5V9a3,3,0,0,1,4.71-2.46A3,3,0,0,0,13,8v5H8a3,3,0,0,0-1.71,5.46A3,3,0,0,1,5.92,17Z"></path>
</svg>
