<svg xmlns="http://www.w3.org/2000/svg" viewBox="132.874 75.284 1045.419 899.456"><path fill="#f5f8fc" d="m356.81,67.73c-111.39,69.49-173.21,172.81-277.55,239.98-110.99,83.42,7.54,242.42,94.72,292.22,138.88,87.84,212.48-16.34,368.55-106.41,47.51-27.42,132.88-55.35,142.04-116.01,37.66-249.47-118.34-440.43-327.76-309.78Z" transform="translate(96.1 40.48) scale(1.37095)"/><g transform="translate(246.89 134.34)"><path fill="#f2f2f2" d="m435.35,813.07c-.08,2.94-1.04,5.66-2.62,7.9-.24.34-.5.68-.77,1-2.66,3.14-6.62,5.13-11.05,5.13h-133.99c-4.67,0-9.22-1.77-12.45-5.13-.15-.16-.31-.33-.46-.5-3.78-4.29-5.2-10.52,7.57-16.81,5.85-2.88,14.45-6.57,24.1-11.15.35-.16.71-.33,1.06-.49t.02,0s.01,0,.02,0h0c7-3.34,14.46-7.14,21.86-11.44.31-.17.62-.35.93-.54,1.76-1.03,3.51-2.09,5.25-3.18.31-.19.61-.38.91-.57,5.58-3.54,10.99-7.38,15.92-11.53.26-.21.52-.43.77-.65,2.51-2.15,4.9-4.38,7.11-6.69.23-.24.46-.48.69-.72,3.96-4.23,7.37-8.75,9.99-13.55.16-.3.32-.59.48-.89,1.1-2.12,2.06-4.3,2.84-6.54l.33-.99c.78-2.4,1.36-4.87,1.71-7.4l22.98,1.56,1.01.07,35.01,2.37s-2,29.12,0,51.06c.03.35.06.69.09,1.04.03.33.06.66.08.99.82,10.1.82,20.02.6,27.65Z"/><path fill="#f90065" d="m432.73,820.97c-.24.34-.5.68-.77,1h-157.95v-1h158.72Z"/><path fill="#f90065" d="M434.75 785.42c-10.01.86-19.81 4.4-28 10.19-8.68 6.14-14.68 14.22-18.82 25.36-.13.33-.25.66-.37 1 0 .01-.01.02-.01.03l-.08-.03-.86-.31c.08-.23.17-.46.26-.69 4.21-11.52 10.36-19.86 19.3-26.17 8.34-5.9 18.31-9.51 28.5-10.37.03.33.06.66.08.99zM324.89 803.11l-.94.33c-3.5-10.07-18.09-9.43-18.24-9.43l-.03-.5c.35-.16.71-.33 1.06-.49t.02 0s.01 0 .02 0c0 0 0 0 0 0 2.53.05 8.82.53 13.45 3.91.35.25.69.52 1.02.81 1.56 1.36 2.85 3.11 3.63 5.37z"/><path fill="#f90065" d="m320.23,797.94l-.18-.98c.44-.08,44.41-8.15,58.39-23.65,14.01-15.53,20.44-44.79,20.5-45.08l.98.21c-.06.3-6.55,29.81-20.74,45.54-5.98,6.63-17.72,12.67-34.91,17.98-12.77,3.94-23.94,5.97-24.05,5.99Z"/><path fill="#ffcc83" d="M345.05 791.18l-.33.64-.13.25c-.08-.04-.17-.09-.25-.13-.43-.22-.86-.44-1.28-.67-5.12-2.74-9.94-5.98-14.41-9.69.31-.17.62-.35.93-.54 4.59 3.79 9.57 7.07 14.84 9.8.21.12.42.23.63.34zM350.95 788.68l-.6.8-.54-.4-14.98-11.22c.31-.19.61-.38.91-.57l15.2 11.39h.01zM370.02 780.28l-.59.81c-.18-.13-.36-.27-.54-.41-6.09-4.53-11.88-9.54-17.23-14.92.26-.21.52-.43.77-.65 5.39 5.42 11.24 10.47 17.39 15.02.07.05.13.1.2.15zM378.81 774.08l-.6.8c-.24-.18-.49-.37-.73-.56-6.37-4.81-12.39-10.15-17.94-15.9.23-.24.46-.48.69-.72 5.54 5.75 11.57 11.09 17.95 15.9.21.16.42.32.63.48zM390.65 752.22l-.38.92c-6.77-2.73-13.51-5.76-20.05-8.99.16-.3.32-.59.48-.89 6.5 3.22 13.21 6.23 19.95 8.96zM373.87 735.73c6.16 4.12 13.23 6.85 20.55 7.94.12.02.23.03.35.05l-.14.99c-.18-.03-.37-.05-.55-.08-7.32-1.12-14.37-3.84-20.54-7.91l.33-.99z"/><path fill="#b8c2d8" d="m468.57,353.34l-12.48,323.11-2.29,59.21c-.12,3.1-2.78,5.47-5.87,5.24l-108.11-8.18c-2.93-.22-5.16-2.7-5.06-5.63l1.81-53.39,8.36-246.22-55.85-78.86,179.49,4.72Z"/><path fill="#112e5b" d="m456.09,676.45l-2.29,59.21c-.12,3.1-2.78,5.47-5.87,5.24l-108.11-8.18c-2.93-.22-5.16-2.7-5.06-5.63l1.81-53.39,119.52,2.75Z"/><path fill="#f2f2f2" d="m521.38,716.91c-1.91,17.09-5.63,51.85-7.8,81.42-3,41-17,41-17,41h-.04c-.12.01-.49.04-1.08.08-7.43.52-49.5,3.03-55.88-6.08-7-10,5-22,13-28.38.85-.68,1.51-1.59,2.03-2.71.16-.34.3-.7.43-1.07.1-.27.19-.55.26-.84h0c.08-.28.15-.54.21-.82,1.23-5.39.45-13.23-.62-20.5-.04-.33-.09-.66-.15-.99-.17-1.21-.36-2.39-.55-3.54-.05-.33-.1-.66-.15-.99-.77-4.75-1.46-8.82-1.46-11.16,0-.67-.25-1.41-.71-2.2-.16-.27-.34-.55-.55-.83-.96-1.33-2.44-2.79-4.24-4.3-.26-.22-.53-.45-.81-.67-3.32-2.67-7.58-5.49-11.82-8.08-.3-.18-.6-.37-.9-.54-2.32-1.41-4.62-2.73-6.74-3.92-.14-.08-.26-.16-.4-.22h-.02c-5.57-3.12-9.81-5.24-9.81-5.24l39.49-59.39s6.53,11.31,13.51,18.39c6.11,6.19,4.59,6.14,18.15,4.02.32-.04.64-.09.98-.15,1.72-.26,3.66-.56,5.87-.87,4.87-.7,8.99-.64,12.44-.14,3.52.51,6.63,2.08,9.06,4.35l.91.91c3.22,3.52,4.96,8.37,4.39,13.46Z"/><path fill="#b8c2d8" d="m472.48,675.25l-68.03,85.93c-2.43,3.08-7.14,2.95-9.41-.24l-24.33-34.22-139.1-195.63c-11.72-16.49-13.47-38.07-4.55-56.23l62.02-126.24,53.5,12.71,17.88,183.64,78.95,86.65,32.81,36.01c1.94,2.13,2.05,5.36.26,7.62Z"/><path fill="#ffcc83" d="M379.41 139.42s84.17 9.91 109.17 27.91-31.25 138.19-31.25 138.19l11.23 47.83s-135.98 43.99-171.98-26.01c0 0 57.66-171.82 82.83-187.91zM422.58 65.33s16-11 29.14 5c3.53 4.3 10.47 4.61 14.86 9 4 4 3 8 8 14s12.49 4.6 14 14-1 14 7 17 13.56 1.89 13.78 16.95c0 0-26.78 3.05-65.78 3.05-39 0-60-8-66-12s-11-7 1-12c5.4-2.25 3-12 7-19 2.75-4.82 8.56-7.18 10-13s1-12 9-18c9.12-6.84 18-5 18-5z"/><path fill="#112e5b" d="m335.58,216.33s-14.51.29-14-14c.41-11.45,15.11-36.66,20-46,7.76-14.81,25.83-19.91,41-18l-47,78Z"/><path fill="#ff9996" d="m458.94,161.56c-5.87,4.86-20.85,14.46-45.38,11.8-22.91-2.48-20.46-15.9-17.02-23.6,1.36-3.05,4.28-5.07,7.59-5.5,2.72-.36,5.18-1.29,7.37-2.78,2.22-1.5,4.18-3.57,5.89-6.18l29.23-11.46,4.28-1.68c-3.25,8.76,5.34,26.47,9.16,33.63,1.04,1.95.58,4.36-1.12,5.77Z"/><path d="m446.62,123.84s-8.18,27.12-28.76,25.43c-5.89-.48-7.33-3.59-6.36-7.79,2.22-1.5,4.18-3.57,5.89-6.18l29.23-11.46Z"/><path fill="#ff9996" d="m285.34,247.6s-42.62,28.42-26.76,61.72c10,21,44.6,3.29,44.6,3.29l-17.84-65.02Z"/><path fill="#112e5b" d="m329.16,385.17c11.14-47.77,55.6-233.07,76.93-242.27,0,0-23.5-8.17-35.5-3.57-10.69,4.1-85.79,181.43-102.11,220.21-1.97,4.68-.79,10.09,2.96,13.51,8.04,7.33,23.38,19.1,41.95,22.45,7.18,1.3,14.12-3.23,15.77-10.33Z"/><path fill="#ff9996" d="m285.58,272.33s-20,10-10,31,25,19,29,14-8-49-19-45Z"/><path d="m450.45,445.74c-.07,0-.14-.01-.21-.04-12.48-5.38-23.61-10.43-33.4-17.72-7.99-5.95-18.32-16.01-22.17-30.15-.08-.29.09-.58.37-.66.29-.09.58.09.66.37,3.77,13.84,13.93,23.72,21.78,29.58,9.69,7.22,20.76,12.24,33.18,17.6.27.12.4.43.28.7-.09.2-.28.32-.49.32Z"/><path fill="#112e5b" d="m388.58,386.33c8.38-51.97,42.86-203.56,69.75-229.99,1.3-1.28,3.16-1.79,4.95-1.47,9.16,1.67,39.14,8.08,46.08,21.53,7.66,14.84-32.34,106.19-37.83,118.57-.41.92-.56,1.92-.46,2.91l11.24,107.61c.26,2.44-1.07,4.77-3.3,5.8-10.03,4.62-38.14,12.95-67.63,6.9-18.81-3.86-24.61-20.7-22.81-31.86Z"/><path fill="#ff9996" d="m499.58,330.33l-26.4-73.63c-5.54-15.44-7.76-31.94-6.01-48.25,1.54-14.41,6.01-28.75,17.41-31.12,24-5,33,11,39,29,6,18,28.53,129.87,28.53,129.87,0,0,1.47,24.13-21.53,27.13s-31-33-31-33Z"/><path fill="#112e5b" d="m560.27,285.74c-21.02,11.77-49.49,12.46-79.69,10.59,0,0-4.05-9.72-8.78-23.95-11.9-35.77-28.13-100.03,4.78-110.05,33.29-10.13,64.07,57.89,78.55,96.27,3.49,9.27,6.04,16.82,7.44,21.11.75,2.31-.19,4.85-2.3,6.03Z"/><path d="M325.08 377.36s-.07 0-.11-.01c-.29-.06-.47-.34-.41-.63 4.94-23.71 28.76-169.51 29-170.98.04-.25.26-.44.52-.45l8.68-.16-8.12-12.01c-.13-.2-.12-.46.03-.64l40-48c.19-.23.53-.26.75-.07.23.19.26.53.07.75l-39.74 47.69 8.44 12.49c.11.16.12.37.03.54-.09.17-.27.28-.46.29l-9.22.17c-1.46 8.91-24.12 147.5-28.93 170.58-.05.25-.27.43-.52.43zM404.08 399.36s-.02 0-.03 0c-.29-.01-.52-.26-.51-.56 1.55-32.61 14.56-75.49 25.2-105.73 10.69-30.38 21.19-54.41 22.74-57.93l-9.48-5.47c-.19-.11-.3-.33-.26-.55.04-.22.2-.39.42-.44l17.78-3.63 10.3-65.64c.05-.29.33-.49.61-.44.29.05.49.32.44.61l-10.36 66.01c-.03.22-.2.4-.42.44l-16.76 3.42 8.68 5.01c.24.14.33.43.22.68-.11.25-11.4 25.59-22.9 58.29-10.61 30.16-23.59 72.94-25.13 105.42-.01.29-.25.51-.53.51z"/><path fill="#ff9996" d="m465.33,103.14c-2.16-3.02-5.67-4.57-9.37-4.56-3.05-15.74-14.33-24.58-28.12-23.22-14.93,1.47-27.15,14.32-25.36,32.57,1.79,18.25,5.09,32.86,20.02,31.39,8.36-.82,18.59-6.51,25.67-14.56,4.81-.36,10.15-2.2,13.34-4.49,5.87-4.21,7.58-11.87,3.82-17.12Z"/><path d="m462.72,113.19c-1.83-3.06-4.59-5.61-7.8-7.18l.47-.96c3.38,1.66,6.31,4.35,8.24,7.59l-.92.55Z"/><path fill="#fff" d="m460.41,109.32c-.52,1.61-1.04,3.22-1.56,4.82"/><rect width="5.07" height="1.07" x="457.1" y="111.2" transform="rotate(-72.1 459.609 111.744)"/><ellipse cx="428.83" cy="103.93" rx="1.7" ry="2.37" transform="rotate(-5.61 429.045 103.982)"/><ellipse cx="411.22" cy="105.09" rx="1.7" ry="2.37" transform="rotate(-5.61 411.392 105.163)"/><path d="M412.86 117.16l-.48-.96c2.73-1.36 4.85-3.81 5.82-6.7.97-2.9.74-6.12-.63-8.85l.96-.48c1.49 2.98 1.75 6.51.69 9.67s-3.37 5.83-6.36 7.32zM420.64 124.5l-.14-1.06c4.3-.58 8.21-3.87 9.5-8.02l1.02.32c-1.43 4.6-5.6 8.12-10.38 8.76z"/><path d="M420.52 139.95c-2.19 0-4.18-.38-5.93-1.12l.42-.98c2.12.9 4.62 1.22 7.45.94 8.3-.82 18.48-6.6 25.32-14.39l.14-.16.22-.02c4.64-.35 9.89-2.12 13.07-4.39 5.62-4.03 7.28-11.38 3.7-16.38-1.97-2.76-5.21-4.33-8.87-4.33h-.5s-.08-.43-.08-.43c-2.95-15.2-13.76-24.15-27.54-22.79l-.1-1.06c14.25-1.39 25.43 7.7 28.61 23.23 3.86.1 7.26 1.83 9.37 4.78 3.93 5.48 2.16 13.5-3.95 17.87-3.27 2.34-8.63 4.17-13.39 4.57-7.11 8.02-17.25 13.73-25.88 14.58-.7.07-1.38.1-2.04.1zM368.39 305.83l-65.85 6.06c-4.52.42-9.1-2.76-10.24-7.09l-25.25-95.92c-1.14-4.33 1.6-8.18 6.11-8.6l65.85-6.06c4.52-.42 9.1 2.76 10.24 7.09l25.25 95.92c1.14 4.33-1.6 8.18-6.11 8.6z"/><path fill="#f2f2f2" d="m365.68,306.07l-65.98,6.07c-4.48.41-9.03-2.74-10.16-7.03l-24.82-94.28c-1.13-4.3,1.58-8.11,6.07-8.53l65.98-6.07c4.48-.41,9.03,2.74,10.16,7.03l24.82,94.28c1.13,4.3-1.58,8.11-6.07,8.53Z"/><path fill="#b8c2d8" d="M285 224.59l-5.73.53c-2.24.21-4.52-1.37-5.09-3.52l-2.61-9.92c-.57-2.15.79-4.06 3.04-4.27l5.73-.53c2.24-.21 4.52 1.37 5.09 3.52l2.61 9.92c.57 2.15-.79 4.06-3.04 4.27zM560.27 285.74c-21.02 11.77-49.49 12.46-79.69 10.59 0 0-4.05-9.72-8.78-23.95 7.78-.26 57.67-2.31 83.33-13.78 3.49 9.27 6.04 16.82 7.44 21.11.75 2.31-.19 4.85-2.3 6.03z"/><ellipse cx="278.76" cy="212.01" rx="2.95" ry="3.48" transform="rotate(-57.16 278.728 212.006)"/><ellipse cx="280.86" cy="219.99" fill="#fff" rx="2.11" ry="2.49" transform="rotate(-57.16 280.823 219.98)"/><ellipse cx="279.92" cy="216.44" rx=".42" ry=".5" transform="rotate(-57.16 279.895 216.439)"/><path fill="#ff9996" d="m388.58,305.33l-36-25c-8-11,6-54,23-51l14.42,5.94c1.7.7,3.24,1.71,4.56,2.98,6.42,6.2,26.02,25.08,26.02,25.08,20.95,20.38-13,59-32,42Z"/><path fill="#ff9996" d="M506.58 360.33l-83.38-38.37-20.06-9.23-9.56-4.4c-22-13 2-57 26.99-45.22l8.82 3.11 19.98 7.03 71.21 25.08c47 17 41 82-14 62zM375.58 229.33l-16.14-8.88c-2.57-1.41-5.23-2.67-7.95-3.76l-13.99-5.59c-1.72-.69-3.7-.61-5.23.43-1.8 1.22-3.05 3.63.27 8.3 6.04 8.5 32.04 18.5 32.04 18.5 16 7 18-6 11-9z"/><path fill="#ff9996" d="m369.32,229.88l-24.73-6.55s-30-6-31-2c-1.77,7.06,6.89,13.75,17,17s33,11,33,11c12,4,19-14,5.73-19.45Z"/><path fill="#ff9996" d="m361.58,243.33l-31.11-2.96s-17.89-1.04-19.89.96c-2.12,2.12,2,13,12,14s19,2,19,2l21,3c9,1,17-16-1-17Z"/><path fill="#ff9996" d="M354.94 257.94l-24.47 3.19-13.59 2.04c-2.09.31-3.48 2.31-3.05 4.38.89 4.33 6.45 9.78 13.75 9.78h14l16 4c15.42 3.29 20.1-24.34-2.64-23.39zM275.58 289.33l-7.06-17.26 16.17-14.15s15.89-7.59 17.89-3.59-1 10-9 13l-18 22z"/><path fill="#ff9996" d="m274.95,285.04l19.35-7.29s19.83-.22,19.06,8.18-17.77,7.4-17.77,7.4l-12,7s-12.27-2.58-8.64-15.29Z"/><path fill="#ff9996" d="M282.58 297.33l20.6-2.54s9.4-1.46 10.4 2.54c.77 3.07 1 7-10 10s-19.77 2.43-19.77 2.43c0 0-10.23-4.43-1.23-12.43zM294.58 320.33l9.42.77c2.22.18 4.42-.54 6.11-2 3.03-2.61 7.47-6.79 7.47-8.77s-6-4-12-1-17.73 2.47-17.73 2.47c0 0-3.27 7.53 6.73 8.53z"/><path d="M485.94 134.66c-2.61-.4-4.24-2.9-4.69-5.2-.38-1.9-.16-3.84.05-5.71.05-.41.09-.82.13-1.23.19-1.93.26-4.39-.88-6.3-1-1.67-2.73-2.69-4.56-3.77-1.92-1.13-3.9-2.3-5.01-4.3-1.11-1.99-1.09-4.35-.9-6.6l.06-.71c.17-1.85.34-3.76-.17-5.5-.5-1.71-2.02-3.49-3.89-3.49-.04 0-.08 0-.13 0l-.04-1.07c2.46-.13 4.45 2.06 5.09 4.26.56 1.93.38 3.95.21 5.89l-.06.71c-.18 2.08-.2 4.25.77 5.99.97 1.74 2.75 2.79 4.62 3.9 1.87 1.1 3.8 2.24 4.94 4.14 1.3 2.17 1.23 4.85 1.03 6.95-.04.41-.09.83-.13 1.25-.2 1.79-.41 3.64-.07 5.38.37 1.87 1.72 4.03 3.81 4.35l-.16 1.06zM387.37 132.83c-1.12-2.25 0-4.91 1.58-6.54 1.09-1.12 2.42-1.93 3.71-2.72.57-.35 1.15-.7 1.7-1.08 2.13-1.46 3.32-3.04 3.54-4.71.12-.92-.06-1.86-.25-2.85-.11-.56-.22-1.13-.27-1.71-.33-3.47 1.45-7.02 4.44-8.83l.55.91c-2.64 1.6-4.22 4.74-3.93 7.81.05.53.15 1.06.26 1.61.2 1.03.4 2.09.26 3.19-.25 1.99-1.6 3.82-3.99 5.46-.57.39-1.16.75-1.74 1.11-1.29.79-2.5 1.54-3.5 2.56-1.29 1.32-2.27 3.54-1.39 5.32l-.96.47zM468.69 140.78c-2.23-.94-3.8-3.21-3.9-5.62-.05-1.09.19-2.14.41-3.16.2-.92.4-1.79.39-2.68 0-2.26-1.46-4.46-3.53-5.35l.42-.98c2.45 1.05 4.17 3.66 4.18 6.33 0 1-.21 1.97-.42 2.91-.22 1-.43 1.94-.39 2.89.09 1.98 1.42 3.91 3.25 4.69l-.42.98zM398.29 137.77c-.86-1.73.04-3.72 1.08-4.89.56-.64 1.22-1.19 1.85-1.72.58-.48 1.13-.94 1.61-1.47.88-.96 1.63-2.43 1.11-3.71l.99-.4c.71 1.74-.21 3.64-1.31 4.84-.53.58-1.13 1.08-1.71 1.56-.63.52-1.22 1.02-1.73 1.6-.81.93-1.54 2.46-.92 3.72l-.96.47z"/><path fill="#ffcc83" d="m417.58,84.33s5.19-4.53,11,10c2,5,7.05,1.21,12,2,6.55,1.05,6,10,17,2,0,0,0-28-29-28,0,0-22.21,4.95-26,22-2,9,0,17,0,17,0,0,1.01-3.55,1.6-7.76.36-2.63,1.9-4.92,4.09-6.42.91-.62,2-1.52,3.31-2.83,2-2,2-4,6-8Z"/><path fill="#f90065" d="m428.18,75.86c11.71.78,24.27,11.1,26.41,24.47.72-.21,3-2,3-2,0,0,1.04-8.33-6.36-16.88-13.07-15.1-41.14-9.47-44.64,2.53,0,0,5.44-9.19,21.59-8.12Z"/><path d="m420.57,174.34c-11.38,0-19.33-2.4-23.63-7.11-3.45-3.78-3.15-7.61-3.13-7.77l1.06.09s-.26,3.56,2.88,6.99c4.04,4.4,11.93,6.73,22.82,6.74v1.07Z"/><rect width="1.07" height="31.32" x="469.05" y="249.17" transform="rotate(-16.7 469.554 264.805)"/><path d="M467.86 366.77s-.09 0-.14-.02c-14-3.87-26.92-11.25-37.35-21.35-.21-.21-.22-.54-.01-.75.21-.21.54-.22.75-.01 10.31 9.98 23.07 17.27 36.89 21.09.28.08.45.37.37.66-.07.24-.28.39-.51.39zM285.8 341.14c-.29 0-.53-.23-.53-.52 0-.29.23-.54.52-.54 15.62-.31 31.06-8.34 40.29-20.94.17-.24.51-.29.75-.12.24.17.29.51.12.75-9.42 12.87-25.18 21.06-41.13 21.38h-.01zM342.08 195.36c-.08 0-.15-.02-.23-.05-.27-.13-.38-.44-.26-.71l16-34c.12-.27.44-.38.71-.26.27.13.38.44.26.71l-16 34c-.09.19-.28.31-.48.31zM521.08 298.36c-.06 0-.12 0-.17-.03l-58-20c-.28-.1-.43-.4-.33-.68.1-.28.4-.43.68-.33l58 20c.28.1.43.4.33.68-.08.22-.28.36-.5.36zM369.32 230.42s-.09 0-.14-.02l-24.73-6.55c-.29-.08-.46-.37-.38-.65.08-.29.37-.45.65-.38l24.73 6.55c.29.08.46.37.38.65-.06.24-.28.4-.52.4zM361.58 243.86s-.03 0-.05 0l-31.11-2.96c-.29-.03-.51-.29-.48-.58.03-.29.29-.51.58-.48l31.11 2.96c.29.03.51.29.48.58-.03.28-.26.48-.53.48zM330.47 261.66c-.26 0-.49-.2-.53-.46-.04-.29.17-.56.46-.6l24.47-3.19c.29-.04.56.17.6.46s-.17.56-.46.6l-24.47 3.19s-.05 0-.07 0zM360.08 268.36c-.06 0-.11 0-.17-.03-.28-.09-.43-.4-.34-.68l12-36c.09-.28.39-.43.68-.34.28.09.43.4.34.68l-12 36c-.07.22-.28.37-.51.37zM268.52 272.61c-.15 0-.3-.06-.4-.18-.19-.22-.17-.56.05-.75l16.17-14.15s.08-.06.12-.08c.06-.03 6.32-3 11.45-4.25.29-.07.58.11.65.39.07.29-.11.58-.39.65-4.75 1.15-10.5 3.82-11.18 4.14l-16.11 14.11c-.1.09-.23.13-.35.13zM274.95 285.58c-.22 0-.42-.13-.5-.35-.1-.28.04-.58.31-.69l19.35-7.29c.27-.1.58.04.69.31s-.04.58-.31.69l-19.35 7.29c-.06.02-.13.03-.19.03zM282.58 297.86c-.27 0-.5-.2-.53-.47-.04-.29.17-.56.46-.6l20.6-2.54c.3-.04.56.17.6.46s-.17.56-.46.6l-20.6 2.54s-.04 0-.07 0zM278.08 315.36c-.23 0-.44-.15-.51-.37l-12-38c-.09-.28.07-.58.35-.67.28-.09.58.07.67.35l12 38c.09.28-.07.58-.35.67-.05.02-.11.02-.16.02zM384.27 367.73c-8.31 0-21.24-.51-33.32-3.1-.29-.06-.47-.35-.41-.63s.35-.47.63-.41c19.67 4.22 41.65 2.88 41.87 2.86.29-.02.55.2.57.5s-.21.55-.5.57c-.09 0-3.52.22-8.85.22zM356.95 420.85c-.07 0-.14-.01-.21-.05l-35.38-15.58c-.27-.12-.39-.43-.27-.7.12-.27.43-.39.7-.27l35.38 15.58c.27.12.39.43.27.7-.09.2-.28.32-.49.32z"/><path d="m360.08,545.36c-.27,0-.5-.21-.53-.48l-12-128c-.03-.29.19-.55.48-.58.3-.03.55.19.58.48l12,128c.03.29-.19.55-.48.58-.02,0-.03,0-.05,0Z"/><rect width="1.07" height="129.47" x="386.38" y="509.74" transform="rotate(-42.61 386.944 574.489)"/><rect width="1.07" height="30.76" x="472.29" y="683.71" transform="rotate(-40.11 472.833 699.11)"/><rect width="136.95" height="1.07" x="283.96" y="826.57"/><path d="m446.31,755.04c-5.29-5.06-24.45-15.36-24.64-15.46l.5-.94c.79.43,19.48,10.47,24.87,15.63l-.74.77Z"/><path d="m434.68,792.75c-1.85-20.91-1.62-46.15-1.62-46.41h1.07c0,.26-.23,25.45,1.62,46.31l-1.06.09Z"/><rect width="1" height="46.32" x="272.08" y="218.17" fill="#21201f" transform="rotate(-13.74 272.51 241.281)"/><rect width="50.25" height="1" x="317.96" y="307.83" fill="#21201f" transform="rotate(-5.72 342.8 308.094)"/><path d="m417.58,180.56c-1.83,0-3.68-.06-5.53-.2-19.11-1.47-21.83-11.92-21.94-12.36l1.04-.25c.03.1,2.71,10.14,20.99,11.55,12.76.98,25.91-1.96,26.04-1.99l.24,1.04c-.11.03-9.89,2.22-20.83,2.22Z"/><path fill="#f2f2f2" d="m449.37,273.25c-1.03,4.78-2.46,9.52-4.3,14.21-.34.9-.71,1.79-1.09,2.68-.9,2.12-1.88,4.23-2.96,6.33-.74,1.48-1.54,2.96-2.39,4.43-1.13,2-2.35,3.98-3.65,5.95-.43.65-.87,1.31-1.32,1.96-3.07,4.46-6.55,8.85-10.46,13.15l-20.06-9.23c3.96-4.73,7.48-9.59,10.63-14.54.18-.29.36-.58.54-.87,4.07-6.49,7.52-13.13,10.52-19.87.17-.4.35-.79.52-1.19,1.45-3.32,2.79-6.67,4.04-10.04l19.98,7.03Z"/><path fill="#21201f" d="m423.32,322.57l-20.99-9.66.42-.5c3.8-4.54,7.36-9.41,10.59-14.49l.54-.86c3.87-6.18,7.3-12.66,10.49-19.81.08-.19.17-.39.26-.59l.26-.59c1.39-3.18,2.74-6.55,4.03-10.02l.17-.46,20.86,7.34-.09.43c-1.04,4.81-2.49,9.62-4.32,14.29-.34.9-.71,1.8-1.1,2.69-.93,2.2-1.93,4.34-2.98,6.36-.73,1.46-1.54,2.96-2.4,4.45-1.09,1.94-2.33,3.95-3.67,5.98-.43.65-.87,1.32-1.33,1.97-3.11,4.52-6.64,8.96-10.5,13.2l-.25.27Zm-19.38-10.02l19.13,8.8c3.73-4.13,7.15-8.44,10.17-12.83.45-.65.89-1.31,1.32-1.95,1.32-2,2.54-4,3.63-5.92.86-1.48,1.66-2.96,2.38-4.41,1.03-2.01,2.02-4.13,2.95-6.3.38-.88.75-1.77,1.08-2.66,1.76-4.48,3.17-9.09,4.18-13.71l-19.1-6.72c-1.24,3.33-2.55,6.56-3.88,9.61-.08.2-.17.4-.26.6l-.26.59c-3.21,7.21-6.66,13.73-10.56,19.94l-.54.87c-3.14,4.93-6.58,9.67-10.25,14.09Z"/><rect width="25" height="25" x="416.65" y="280.08" rx="1.99" ry="1.99" transform="rotate(29.75 429.125 292.555)"/><rect width="3" height="7" x="441.05" y="289.83" rx="1.39" ry="1.39" transform="rotate(29.75 442.52 293.29)"/><rect width="3" height="7" x="435.09" y="300.24" rx="1.39" ry="1.39" transform="rotate(29.75 436.564 303.719)"/><rect width="23" height="23" x="417.65" y="281.08" fill="#21201f" rx="1.23" ry="1.23" transform="rotate(29.75 429.125 292.555)"/><path fill="#f90065" d="m516.99,703.45c-.68,7.53-1.94,21.04-3.68,37.92-.01.07-.02.13-.02.2-1.07,10.37-2.31,22.01-3.71,34.32-3.6,31.66-9.85,53.67-13.04,63.44-.12.01-.49.04-1.08.08,3.13-9.5,9.49-31.62,13.13-63.64,1.38-12.17,2.61-23.68,3.67-33.96.04-.4.08-.8.12-1.19,1.77-17.21,3.04-30.83,3.7-38.08l.91.91Z"/><path fill="#f90065" d="M513.39 741.44l-.1.13-.52.65c-.17-.13-.34-.27-.51-.41-12.58-10.14-21.95-26.45-24.53-42.46.32-.04.64-.09.98-.15 2.52 15.56 11.53 31.4 23.67 41.42.31.26.62.51.93.75.03.03.05.05.08.07zM476.18 805.87c-5.95-4.36-13.54-6.3-20.86-5.33l-.13-.99c7.55-1 15.43 1 21.58 5.51l-.59.81z"/><path fill="#ffcc83" d="M433.93 746.72l-.67-.75c7.16-6.39 13.18-14.31 17.43-22.91l.9.44c-4.31 8.71-10.41 16.74-17.66 23.21zM467.64 744.14c-.19.33-.39.66-.6.99-3.76 6.07-9.05 11.3-15.17 15-.16-.27-.34-.55-.55-.83 6.17-3.73 11.48-9.04 15.18-15.21.1-.15.19-.31.28-.46l.86.51zM475.86 771.43c-.2.09-.4.19-.6.28-6.53 3.07-13.37 5.52-20.37 7.3-.04-.33-.09-.66-.15-.99 7.01-1.79 13.85-4.27 20.38-7.35.1-.04.21-.09.31-.14l.43.9z"/><path d="m480.53,812.53l-.89.59c-5.81-8.71-18.8-10.53-25.03-10.88.16-.34.3-.7.43-1.07,6.53.38,19.46,2.32,25.49,11.36Z"/><path fill="#f90065" d="m474.39,803.97l-.97-.25c4.43-17.28,3.16-35.9-3.56-52.43-6.73-16.52-18.83-30.73-34.07-40.01l.52-.85c15.42,9.39,27.67,23.77,34.47,40.49,6.81,16.72,8.09,35.56,3.61,53.05Z"/><path fill="#ffcc83" d="M461.71 735.11c-.07.23-.13.45-.2.67-2.44 7.81-7.65 14.67-14.43 19.22-.26-.22-.53-.45-.81-.67 6.91-4.54 12.17-11.54 14.48-19.5l.13.04.83.24zM475.28 765.52s-.03.02-.05.04c-.3.21-.6.41-.9.61-6.07 4.12-12.94 6.95-20.14 8.31-.05-.33-.1-.66-.15-.99 7.19-1.36 14.04-4.22 20.07-8.39.2-.13.4-.26.59-.4l.49.7.09.12zM426.66 741.91l-.6-.8c8.25-6.16 15.1-14.25 19.82-23.4l.89.46c-4.79 9.28-11.75 17.49-20.11 23.74z"/><path d="M477.68 701.18c-2.35 0-3.76-.95-4.81-1.66-.26-.18-.51-.35-.76-.49l.53-.93c.27.15.54.33.83.53 1.11.75 2.38 1.62 4.72 1.46 3.08-.19 14.53-2.04 14.65-2.05l.17 1.05c-.47.08-11.62 1.87-14.75 2.07-.2.01-.39.02-.58.02zM474.88 840.4c-7.44 0-15.08-.24-19.89-1.04-11.81-1.97-15.22-3.67-17.38-8.65l.98-.42c1.87 4.32 4.4 5.99 16.58 8.02 11.81 1.97 41.09.51 41.38.49 0 0 2.59-.26 5.54-2.91 2.75-2.47 6.38-7.56 8.09-17.84 3.33-20.06 10.59-100.38 10.66-101.19l1.06.1c-.07.81-7.33 81.17-10.67 101.27-3.4 20.48-14.15 21.6-14.61 21.63-.19 0-10.73.54-21.74.54z"/><path fill="#112e5b" d="m472.48,675.25l-68.03,85.93c-2.43,3.08-7.14,2.95-9.41-.24l-24.33-34.22c18.47-13.49,62.51-49.95,68.7-95.1l32.81,36.01c1.94,2.13,2.05,5.36.26,7.62Z"/></g><g transform="rotate(-19.542 881.627 -2322.619) scale(.78365)"><rect width="29.71" height="29.71" x="143.91" y="175.71" fill="#b8c2d8" transform="rotate(-45 158.766 190.567)"/><path fill="#ffcc83" d="m243.29,262.97l-12.13,12.13c-6.78,6.78-17.75,6.78-24.54,0l-13.68-13.68-45.72-45.72,36.66-36.66,45.72,45.72,6.19,6.19,6.17,6.17,1.33,1.33c6.78,6.78,6.78,17.75,0,24.54Z"/><rect width="51.85" height="8.75" x="188.45" y="241.8" fill="#f90065" transform="rotate(-45 214.378 246.172)"/><rect width="51.85" height="8.72" x="194.62" y="247.99" fill="#f2f2f2" transform="rotate(-45 220.546 252.347)"/><circle cx="100.07" cy="131.87" r="68.15" fill="#f2f2f2"/><path fill="#112e5b" d="m58.06,89.85c23.2-23.2,60.82-23.2,84.03,0,23.2,23.2,23.2,60.82,0,84.03-23.2,23.2-60.82,23.2-84.03,0-23.2-23.2-23.2-60.82,0-84.03m-12.36-12.36c-29.98,29.98-29.98,78.76,0,108.74,29.98,29.98,78.76,29.98,108.74,0,29.98-29.98,29.98-78.76,0-108.74-29.98-29.98-78.76-29.98-108.74,0h0Z"/><circle cx="92.45" cy="88.82" r="9.61" fill="#fffafc"/><circle cx="113.46" cy="85.12" r="2.62" fill="#fffafc"/><rect width="1.75" height="66.41" x="170.66" y="206.38" transform="rotate(-45 171.528 239.58)"/><rect width="1.75" height="15.73" x="168.81" y="173.02" transform="rotate(-45 169.676 180.888)"/><path d="m100.07,209.6c-19.91,0-39.83-7.58-54.99-22.74l1.24-1.24c29.64,29.64,77.87,29.64,107.5,0l1.24,1.24c-15.16,15.16-35.07,22.74-54.99,22.74Zm-14.87-19.29c-10.48-2.66-20.08-8.12-27.76-15.81-20.14-20.14-23.4-51.99-7.77-75.74l.73.48-.73-.48c2.24-3.41,4.86-6.61,7.77-9.53l1.24,1.24c-2.83,2.83-5.37,5.94-7.55,9.25-15.18,23.06-12.01,53.99,7.55,73.54,7.46,7.46,16.78,12.77,26.95,15.35l-.43,1.69Zm65.8-114.87c-28.6-25.84-72.02-26.17-101-.76l-1.15-1.31c29.65-25.99,74.07-25.66,103.33.78l-1.17,1.3Z"/></g><g transform="rotate(35.637 -292.787 1843.933) scale(.86626)"><path fill="#112e5b" d="m230.22,80.18l32.9,187.71c1.22,6.95-4.13,13.32-11.19,13.32h-69.95l48.24-201.03Z"/><path fill="#f2f2f2" d="M111.27 72.51c-2.1 0-3.89-1.61-4.07-3.74-.35-4.14-3.71-7.02-8.18-7.02-2.26 0-4.09-1.83-4.09-4.09s1.83-4.09 4.09-4.09c8.75 0 15.61 6.1 16.32 14.51.19 2.25-1.48 4.23-3.73 4.42-.12 0-.23.01-.35.01zM173.39 72.51c-2.1 0-3.89-1.61-4.07-3.74-.35-4.14-3.71-7.02-8.18-7.02-2.26 0-4.09-1.83-4.09-4.09s1.83-4.09 4.09-4.09c8.75 0 15.61 6.1 16.32 14.51.19 2.25-1.48 4.23-3.73 4.42-.12 0-.23.01-.35.01z"/><path fill="#ffcc83" d="m193.24,281.21H18.42c-6.35,0-10.84-5.15-10.04-11.49l24.03-189.54c.8-6.35,6.6-11.49,12.95-11.49h174.82c6.35,0,10.84,5.15,10.04,11.49l-24.03,189.54c-.8,6.35-6.6,11.49-12.95,11.49Z"/><polygon fill="#fff" points="190.51 264.46 25.4 264.46 46.33 99.34 211.45 99.34 190.51 264.46"/><path fill="#f90065" d="m95.3,230.13l12.23-96.45h-15.03s-7.35,16.35-31.34,16.35l-1.79,14.13h23.99l-8.36,65.97h20.3Z"/><path d="m96.07,231h-22.06l8.36-65.97h-23.99l2.01-15.88h.77c12.08,0,19.74-4.3,24.04-7.91,4.66-3.91,6.49-7.89,6.51-7.93l.23-.51h16.58s-.12.98-.12.98l-12.33,97.22Zm-20.08-1.75h18.54l12.01-94.71h-13.5c-1.52,2.8-9.83,16.03-31.11,16.34l-1.57,12.39h23.99l-8.36,65.97Z"/><path fill="#f90065" d="m145.56,161.89l1.3-10.23h27.69l2.28-17.98h-51.68l-3.87,30.52-1.29,10.17-.18,1.42c-.2,1.57,1.18,2.72,2.73,2.22,3.18-1.03,6.6-1.61,10.11-1.61,14.27,0,25.07,6.09,23.61,17.63s-14.01,19.26-28.28,19.26c-3.96,0-7.61-.73-10.8-2.02-.86-.35-1.9.33-2.03,1.29l-1.75,13.84c-.08.6.24,1.14.79,1.33,4.65,1.56,9.82,2.41,15.35,2.41,33.22,0,44.81-18.64,47.22-37.6,2.15-16.92-11.55-28.37-31.18-30.64Z"/><path d="m129.53,231c-5.5,0-10.76-.83-15.63-2.46-.94-.31-1.51-1.25-1.38-2.27l1.75-13.84c.09-.75.55-1.42,1.22-1.82.63-.37,1.36-.44,2-.18,3.21,1.3,6.73,1.96,10.47,1.96,14.53,0,26.06-7.78,27.42-18.5.5-3.9-.46-7.25-2.84-9.95-3.75-4.25-11-6.69-19.89-6.69-3.33,0-6.64.53-9.84,1.57-1.01.33-2.08.14-2.85-.5-.77-.63-1.14-1.63-1.01-2.66l5.44-42.87h53.44l-2.5,19.73h-27.69l-1.09,8.6c11.49,1.5,20.76,6.09,26.16,12.98,4.09,5.21,5.79,11.62,4.91,18.53-1.4,11.07-5.55,19.96-12.32,26.43-8.28,7.92-20.31,11.93-35.77,11.93Zm-12.84-18.96c-.14,0-.26.06-.31.09-.2.12-.34.32-.37.53l-1.75,13.84c-.02.15.02.33.2.39,4.69,1.57,9.76,2.37,15.07,2.37,34.45,0,44.22-20.03,46.35-36.84.83-6.53-.7-12.32-4.55-17.23-5.25-6.69-14.44-11.11-25.87-12.43l-.88-.1,1.5-11.87h27.69l2.06-16.24h-49.92l-5.24,41.34c-.06.44.09.84.39,1.1.32.26.75.33,1.2.18,3.38-1.1,6.87-1.65,10.38-1.65,9.54,0,17.07,2.59,21.21,7.28,2.73,3.1,3.83,6.91,3.27,11.33-1.47,11.6-13.73,20.03-29.15,20.03-3.96,0-7.71-.7-11.13-2.09-.05-.02-.1-.03-.15-.03Z"/><circle cx="158.7" cy="85.45" r="5.72" fill="#112e5b"/><path fill="#f2f2f2" d="m157.73,88.72c-4.96,0-9.39-1.93-12.48-5.44-3.02-3.43-4.36-7.92-3.76-12.65,1.21-9.57,9.85-17.06,19.66-17.06,2.26,0,4.09,1.83,4.09,4.09s-1.83,4.09-4.09,4.09c-5.58,0-10.87,4.54-11.55,9.91-.3,2.37.33,4.57,1.78,6.21,1.52,1.72,3.77,2.67,6.35,2.67,2.26,0,4.09,1.83,4.09,4.09s-1.83,4.09-4.09,4.09Z"/><circle cx="96.57" cy="85.45" r="5.72" fill="#112e5b"/><path fill="#f2f2f2" d="m95.61,88.72c-4.96,0-9.39-1.93-12.49-5.44-3.02-3.43-4.35-7.92-3.75-12.65,1.21-9.57,9.85-17.06,19.66-17.06,2.26,0,4.09,1.83,4.09,4.09s-1.83,4.09-4.09,4.09c-5.58,0-10.87,4.54-11.55,9.91-.3,2.37.33,4.57,1.78,6.22,1.52,1.72,3.77,2.67,6.35,2.67,2.26,0,4.09,1.83,4.09,4.09s-1.83,4.09-4.09,4.09Z"/><rect width="166.48" height="1.75" x="-47.97" y="180.21" transform="rotate(-82.68 35.263 181.076)"/><rect width="112.13" height="1.75" x="-32.24" y="149.96" transform="rotate(-82.45 23.83 150.847)"/><rect width="67.03" height="1.75" x="153.79" y="68.23"/><rect width="179.83" height="1.75" x="72.05" y="280.75"/><path d="M82.47 83.85c-3.19-3.62-4.6-8.35-3.97-13.33 1.27-9.99 10.28-17.82 20.53-17.82v1.75c-9.38 0-17.63 7.16-18.79 16.3-.57 4.48.69 8.72 3.54 11.96l-1.31 1.16zM144.59 83.85c-3.19-3.62-4.6-8.35-3.97-13.33 1.27-9.99 10.28-17.82 20.53-17.82v1.75c-9.38 0-17.63 7.16-18.79 16.3-.57 4.48.69 8.72 3.54 11.96l-1.31 1.16z"/></g><g transform="rotate(-14.339 1621.664 -214.327) scale(.90403)"><path fill="#112e5b" d="m249.31,155.28c-7.13-56.37-55.22-99.96-113.52-99.96-11.71,0-23.01,1.77-33.66,5.04l35.23,116,111.95-21.08Z"/><path fill="#b8c2d8" d="m249.31,155.28l-111.95,21.08-104.13-57.41c-7.61,15.32-11.9,32.57-11.9,50.84,0,63.22,51.25,114.46,114.46,114.46s114.46-51.25,114.46-114.46c0-4.92-.35-9.75-.95-14.5Z"/><path fill="#f90065" d="m95.15,51.62c-30.2,9.28-55.06,30.72-68.9,58.59l104.13,57.41-35.23-116Z"/><rect width="1.75" height="87.38" x="106.96" y="49.2" transform="rotate(-16.26 107.837 92.906)"/><rect width="1.75" height="96.24" x="84.24" y="99.81" transform="rotate(-60.64 85.119 147.937)"/><path d="M135.8 285.12c-63.6 0-115.34-51.74-115.34-115.34 0-6.21.5-12.45 1.49-18.54l1.72.28c-.97 5.99-1.46 12.14-1.46 18.26 0 62.63 50.96 113.59 113.59 113.59v1.75zM225.49 100.11c-21.7-27.91-54.39-43.92-89.69-43.92-11.37 0-22.6 1.68-33.4 5l-.51-1.67c10.96-3.37 22.37-5.08 33.91-5.08 35.85 0 69.04 16.25 91.07 44.6l-1.38 1.07z"/></g></svg>